<svg xmlns="http://www.w3.org/2000/svg"><symbol id="md-arrow-dropleft" viewBox="0 0 512 512"><path d="M320 128L192 256l128 128z"/></symbol><symbol id="logo-linkedin" viewBox="0 0 512 512"><path d="M417.2 64H96.8C79.3 64 64 76.6 64 93.9V415c0 17.4 15.3 32.9 32.8 32.9h320.3c17.6 0 30.8-15.6 30.8-32.9V93.9C448 76.6 434.7 64 417.2 64zM183 384h-55V213h55v171zm-25.6-197h-.4c-17.6 0-29-13.1-29-29.5 0-16.7 11.7-29.5 29.7-29.5s29 12.7 29.4 29.5c0 16.4-11.4 29.5-29.7 29.5zM384 384h-55v-93.5c0-22.4-8-37.7-27.9-37.7-15.2 0-24.2 10.3-28.2 20.3-1.5 3.6-1.9 8.5-1.9 13.5V384h-55V213h55v23.8c8-11.4 20.5-27.8 49.6-27.8 36.1 0 63.4 23.8 63.4 75.1V384z"/></symbol><symbol id="md-american-football" viewBox="0 0 512 512"><path d="M32 256c14.1 35 36.2 66 64 90.6V165.4C68.2 190 46.1 221 32 256zm448 0c-14.1-35-36.2-66-64-90.6v181.2c27.8-24.6 49.9-55.6 64-90.6zM256 105c-47.1 0-91 13.4-128 36.5v228.9c37 23.1 80.9 36.5 128 36.5s91-13.4 128-36.5V141.5c-37-23.1-80.9-36.5-128-36.5zm96 135v64h-32v-32h-48v32h-32v-32h-48v32h-32v-96h32v32h48v-32h32v32h48v-32h32v32z"/></symbol><symbol id="logo-twitter" viewBox="0 0 512 512"><path d="M492 109.5c-17.4 7.7-36 12.9-55.6 15.3 20-12 35.4-31 42.6-53.6-18.7 11.1-39.4 19.2-61.5 23.5C399.8 75.8 374.6 64 346.8 64c-53.5 0-96.8 43.4-96.8 96.9 0 7.6.8 15 2.5 22.1-80.5-4-151.9-42.6-199.6-101.3-8.3 14.3-13.1 31-13.1 48.7 0 33.6 17.2 63.3 43.2 80.7-16-.4-31-4.8-44-12.1v1.2c0 47 33.4 86.1 77.7 95-8.1 2.2-16.7 3.4-25.5 3.4-6.2 0-12.3-.6-18.2-1.8 12.3 38.5 48.1 66.5 90.5 67.3-33.1 26-74.9 41.5-120.3 41.5-7.8 0-15.5-.5-23.1-1.4C62.8 432 113.7 448 168.3 448 346.6 448 444 300.3 444 172.2c0-4.2-.1-8.4-.3-12.5C462.6 146 479 129 492 109.5z"/></symbol><symbol id="logo-twitch" viewBox="0 0 512 512"><path d="M80 32l-32 80v304h96v64h64l64-64h80l112-112V32H80zm336 256l-64 64h-96.001L192 416v-64h-80V80h304v208z"/><path d="M320 143h48v129h-48zm-112 0h48v129h-48z"/></symbol><symbol id="logo-facebook" viewBox="0 0 512 512"><path d="M426.8 64H85.2C73.5 64 64 73.5 64 85.2v341.6c0 11.7 9.5 21.2 21.2 21.2H256V296h-45.9v-56H256v-41.4c0-49.6 34.4-76.6 78.7-76.6 21.2 0 44 1.6 49.3 2.3v51.8h-35.3c-24.1 0-28.7 11.4-28.7 28.2V240h57.4l-7.5 56H320v152h106.8c11.7 0 21.2-9.5 21.2-21.2V85.2c0-11.7-9.5-21.2-21.2-21.2z"/></symbol><symbol id="logo-snapchat" viewBox="0 0 512 512"><path d="M495.998 360.389l-.189-14.501-14.398-1.278c-15.413-1.396-43.8-7.219-54.301-16.9-16.281-15.011-35.688-36.199-35.688-51.893 0-1.014 0-2.546 4.15-5.186 4.985-3.174 12.589-5.584 19.297-7.71 5.217-1.654 10.144-3.217 14.394-5.236 9.236-4.39 18.498-15.978 17.471-28.807-1.215-15.166-14.424-27.046-30.072-27.046-4.021 0-8.068.76-12.027 2.259-8.027 3.041-13.743 4.41-17.705 4.962.747-9.319 1.791-20.12 3.211-30.67 5.111-37.948-5.281-73.509-29.264-101.042C335.498 48.208 297.376 32 256.283 32H256c-41.093 0-79.215 16.208-104.591 45.341-23.982 27.534-34.375 63.345-29.265 101.292 1.416 10.51 2.46 21.231 3.21 30.618-3.97-.559-9.686-1.998-17.703-5.034-3.965-1.502-8.017-2.295-12.043-2.295-15.641-.001-28.844 11.852-30.057 27.003-1.027 12.818 8.235 24.393 17.47 28.783 4.251 2.02 9.181 3.578 14.4 5.232 6.707 2.125 14.309 4.532 19.293 7.703 4.147 2.639 4.147 4.168 4.147 5.182 0 8.66-6.191 24.691-35.688 51.888-10.499 9.681-39.055 15.501-54.588 16.897l-14.572 1.311L16 360.603c0 1.679.312 10.546 6.485 20.319 5.246 8.306 16.073 19.283 37.863 24.407a1139.713 1139.713 0 0 0 15.208 3.454c2.306.512 4.555 1.01 6.454 1.453l.081.623c.9 7.004 1.611 12.535 4.392 17.75 2.453 4.6 8.574 12.316 22.015 12.316 2.478 0 5.249-.246 8.472-.751 1.672-.263 3.386-.554 5.2-.863 7.116-1.212 15.182-2.587 23.451-2.587 10.277 0 18.732 2.188 25.846 6.688 4.531 2.867 8.892 5.972 13.509 9.26C202.967 465.481 223.358 480 256 480c32.726 0 53.293-14.582 71.439-27.446 4.576-3.244 8.898-6.309 13.377-9.142 7.113-4.5 15.568-6.688 25.846-6.688 8.27 0 16.334 1.375 23.449 2.586 1.814.311 3.529.602 5.202.864 3.223.505 5.993.751 8.472.751 13.44 0 19.562-7.715 22.015-12.313 2.781-5.214 3.492-10.746 4.392-17.749l.082-.629c1.898-.441 4.148-.941 6.455-1.452 4.023-.892 9.029-2.001 15.206-3.454 21.851-5.139 32.611-16.17 37.79-24.518 6.097-9.828 6.296-18.736 6.273-20.421zM208 128c8.836 0 16 10.745 16 24s-7.164 24-16 24-16-10.745-16-24 7.164-24 16-24zm103.615 77.698C296.368 220.725 276.617 229 256 229c-20.838 0-40.604-8.29-55.657-23.343a8 8 0 1 1 11.313-11.313C223.688 206.374 239.436 213 256 213c16.387 0 32.15-6.64 44.385-18.698a8 8 0 0 1 11.23 11.396zM304 176c-8.836 0-16-10.746-16-24s7.164-24 16-24 16 10.746 16 24-7.164 24-16 24z"/></symbol></svg>